<svg xmlns="http://www.w3.org/2000/svg" width="1186.45" height="640.816" viewBox="0 0 1186.45 640.816">
    <defs>
        <style>
            .cls-1{opacity:.183}.cls-2{fill:#fff}
        </style>
    </defs>
    <g id="Grupo_56" class="cls-1" data-name="Grupo 56">
        <path id="Trazado_57" d="M879.059 431.6a1.134 1.134 0 0 1-.568-.153L655.826 302.889c-4.087-2.359-6.339-5.577-6.339-9.06s2.251-6.7 6.34-9.062l145.01-83.721c3.353-1.936 5.2-4.453 5.2-7.087s-1.845-5.153-5.2-7.089L555.3 45.113c-7.4-4.271-19.431-4.271-26.828 0L446.12 92.661c-3.352 1.936-5.2 4.453-5.2 7.087s1.847 5.151 5.2 7.085l122.418 70.678c4.087 2.361 6.337 5.577 6.337 9.062s-2.251 6.7-6.339 9.06L385.505 301.306c-8.025 4.636-21.085 4.636-29.111 0l-121.54-70.172a1.14 1.14 0 0 1 1.146-1.973l121.538 70.172c7.4 4.271 19.433 4.271 26.828 0L567.4 193.659c3.352-1.936 5.2-4.452 5.2-7.085s-1.847-5.153-5.2-7.087l-122.419-70.679c-4.089-2.359-6.34-5.575-6.34-9.06s2.25-6.7 6.339-9.062l82.355-47.547c8.023-4.636 21.082-4.636 29.11 0L801.977 184.9c4.087 2.359 6.339 5.577 6.339 9.062s-2.251 6.7-6.339 9.062L656.968 286.74c-3.353 1.938-5.2 4.455-5.2 7.089s1.849 5.149 5.2 7.086l222.665 128.556a1.141 1.141 0 0 1-.574 2.127z" class="cls-2" data-name="Trazado 57" transform="translate(135.444 -39.662)"/>
        <path id="Trazado_58" d="M593.486 324.966a1.14 1.14 0 0 1-.572-2.127L809.04 198.058c4.621-2.668 7.164-6.162 7.164-9.838s-2.545-7.169-7.162-9.836L601.75 58.7c-10.022-5.783-26.331-5.783-36.356 0l-46.335 26.759a1.14 1.14 0 1 1-1.142-1.974l46.336-26.755c10.655-6.147 27.987-6.147 38.637 0l207.292 119.68c5.353 3.091 8.3 7.284 8.3 11.81s-2.949 8.721-8.3 11.812L594.056 324.813a1.14 1.14 0 0 1-.57.153z" class="cls-2" data-name="Trazado 58" transform="translate(367.966 -29.43)"/>
        <path id="Trazado_59" d="M478.081 567.9a33.524 33.524 0 0 1-16.395-3.916L165.563 393.02c-4.575-2.641-7.1-6.238-7.1-10.124s2.521-7.481 7.1-10.122l101-58.312c9.036-5.22 23.744-5.222 32.786 0l186.819 107.86c8.41 4.852 22.1 4.854 30.509 0L768.7 276.811c3.843-2.219 5.96-5.113 5.96-8.149s-2.117-5.931-5.96-8.147l-74.472-43c-8.413-4.851-22.1-4.854-30.508 0l-145.906 84.243c-9.04 5.22-23.75 5.22-32.79 0L278.189 182.341a25.327 25.327 0 0 0-24.748-.248L32.988 303.541a1.139 1.139 0 0 1-1.1-2L252.343 180.1a27.608 27.608 0 0 1 26.985.27l206.838 119.413c8.41 4.856 22.1 4.856 30.506 0l145.911-84.242c9.04-5.22 23.748-5.218 32.786 0l74.476 43c4.577 2.641 7.1 6.238 7.1 10.122s-2.521 7.483-7.1 10.124L517.816 424.3c-9.04 5.218-23.746 5.218-32.786 0L298.211 316.437c-8.41-4.854-22.092-4.858-30.506 0l-101 58.312c-3.84 2.217-5.956 5.111-5.956 8.147s2.117 5.931 5.956 8.149l296.123 170.966c8.41 4.856 22.1 4.856 30.5 0l383.185-221.229a1.14 1.14 0 0 1 1.142 1.974L494.472 563.985a33.515 33.515 0 0 1-16.391 3.915z" class="cls-2" data-name="Trazado 59" transform="translate(-31.3 72.915)"/>
        <path id="Trazado_60" d="M461.37 362.59a1.134 1.134 0 0 1-.568-.153l-63.673-36.761a1.141 1.141 0 1 1 1.142-1.974l63.673 36.761a1.14 1.14 0 0 1-.574 2.127z" class="cls-2" data-name="Trazado 60" transform="translate(268.744 193.538)"/>
        <path id="Trazado_61" d="M337.075 145.828a1.14 1.14 0 0 1-.572-2.127l83.872-48.423a1.14 1.14 0 0 1 1.142 1.974l-83.873 48.423a1.14 1.14 0 0 1-.569.153z" class="cls-2" data-name="Trazado 61" transform="translate(218.942 5.897)"/>
        <path id="Trazado_62" d="M731.04 231.029a1.139 1.139 0 0 1-.57-.153L620.458 167.36a1.141 1.141 0 1 1 1.142-1.975L731.613 228.9a1.139 1.139 0 0 1-.572 2.126z" class="cls-2" data-name="Trazado 62" transform="translate(452.198 63.487)"/>
        <path id="Trazado_63" d="M354.571 145.528H316.8a1.14 1.14 0 0 1-1.14-1.14v-21.807a1.141 1.141 0 0 1 1.14-1.14h37.768a1.141 1.141 0 0 1 1.14 1.14v21.806a1.144 1.144 0 0 1-1.14 1.14zm-36.629-2.28h35.489v-19.526h-35.49z" class="cls-2" data-name="Trazado 63" transform="translate(202.29 27.515)"/>
        <path id="Trazado_64" d="M602.449 119.308h-37.77a1.139 1.139 0 0 1-1.14-1.14v-21.8a1.139 1.139 0 0 1 1.14-1.14h37.77a1.14 1.14 0 0 1 1.14 1.14v21.8a1.14 1.14 0 0 1-1.14 1.14zm-36.629-2.28h35.489V97.5H565.82z" class="cls-2" data-name="Trazado 64" transform="translate(405.91 5.978)"/>
        <path id="Trazado_65" d="M294.575 379.5a43.68 43.68 0 0 1-12.473-1.821c-10.289-3.06-16.431-8.878-16.431-15.561s6.144-12.5 16.431-15.559a43.587 43.587 0 0 1 24.943 0c10.291 3.062 16.433 8.878 16.433 15.561s-6.142 12.5-16.431 15.559a43.677 43.677 0 0 1-12.472 1.821zm0-32.482a41.48 41.48 0 0 0-11.821 1.727c-9.268 2.756-14.8 7.756-14.8 13.373s5.534 10.617 14.8 13.377a41.4 41.4 0 0 0 23.644 0c9.269-2.76 14.8-7.759 14.8-13.375s-5.534-10.617-14.8-13.375a41.471 41.471 0 0 0-11.825-1.728z" class="cls-2" data-name="Trazado 65" transform="translate(161.224 210.942)"/>
        <path id="Trazado_66" d="M255.831 357.13a43.679 43.679 0 0 1-12.473-1.821c-10.289-3.06-16.433-8.876-16.433-15.559s6.142-12.5 16.433-15.561a43.585 43.585 0 0 1 24.943 0c10.291 3.062 16.433 8.878 16.433 15.561s-6.142 12.5-16.431 15.559a43.676 43.676 0 0 1-12.472 1.821zm0-32.48a41.506 41.506 0 0 0-11.819 1.723c-9.269 2.759-14.8 7.759-14.8 13.377s5.534 10.617 14.8 13.375a41.4 41.4 0 0 0 23.644 0c9.269-2.758 14.8-7.758 14.8-13.375s-5.534-10.617-14.8-13.377a41.549 41.549 0 0 0-11.828-1.723z" class="cls-2" data-name="Trazado 66" transform="translate(129.397 192.567)"/>
        <path id="Trazado_67" d="M217.086 334.76a43.677 43.677 0 0 1-12.472-1.821c-10.289-3.06-16.433-8.876-16.433-15.559s6.144-12.5 16.433-15.559a43.586 43.586 0 0 1 24.943 0c10.291 3.06 16.433 8.876 16.433 15.559s-6.142 12.5-16.431 15.559a43.68 43.68 0 0 1-12.473 1.821zm0-32.48a41.467 41.467 0 0 0-11.822 1.72c-9.269 2.758-14.8 7.758-14.8 13.375s5.536 10.625 14.8 13.38a41.4 41.4 0 0 0 23.644 0c9.269-2.758 14.8-7.758 14.8-13.375s-5.534-10.617-14.8-13.375a41.473 41.473 0 0 0-11.824-1.725z" class="cls-2" data-name="Trazado 67" transform="translate(97.571 174.192)"/>
        <path id="Trazado_68" d="M178.341 312.391a43.732 43.732 0 0 1-12.47-1.82c-10.291-3.062-16.433-8.878-16.433-15.561s6.142-12.5 16.431-15.559a43.586 43.586 0 0 1 24.943 0c10.289 3.06 16.431 8.876 16.431 15.559s-6.142 12.5-16.43 15.561a43.739 43.739 0 0 1-12.472 1.82zm0-32.48a41.467 41.467 0 0 0-11.819 1.725c-9.269 2.758-14.8 7.758-14.8 13.375s5.534 10.617 14.8 13.377a41.42 41.42 0 0 0 23.642 0c9.268-2.759 14.8-7.759 14.8-13.377s-5.534-10.617-14.8-13.375a41.482 41.482 0 0 0-11.825-1.725z" class="cls-2" data-name="Trazado 68" transform="translate(65.745 155.817)"/>
        <path id="Trazado_69" d="M176.6 294.623a1.14 1.14 0 0 1-.574-2.128l46.161-26.651a1.14 1.14 0 0 1 1.142 1.974L177.17 294.47a1.138 1.138 0 0 1-.57.153z" class="cls-2" data-name="Trazado 69" transform="translate(87.12 146.01)"/>
        <path id="Trazado_70" d="M332.765 383.367a1.123 1.123 0 0 1-.576-.157l-38.254-22.364a1.14 1.14 0 0 1 1.153-1.967l38.254 22.364a1.14 1.14 0 0 1-.577 2.124z" class="cls-2" data-name="Trazado 70" transform="translate(183.98 222.429)"/>
        <path id="Trazado_71" d="M470.428 367.818h-37.77a1.14 1.14 0 0 1-1.14-1.14v-21.806a1.144 1.144 0 0 1 1.14-1.14h37.772a1.142 1.142 0 0 1 1.14 1.14v21.806a1.141 1.141 0 0 1-1.142 1.14zm-36.628-2.281h35.489v-19.526H433.8z" class="cls-2" data-name="Trazado 71" transform="translate(297.459 210.116)"/>
    </g>
</svg>
